# This file uses centimeters as units for non-parametric coordinates.

mtllib Lance.mtl
g default
v -0.190212 0.061803 -0.070883
v -0.161804 0.117557 -0.070883
v -0.117557 0.161803 -0.070883
v -0.061804 0.190211 -0.070883
v -0.000000 0.200000 -0.070883
v 0.061803 0.190211 -0.070883
v 0.117557 0.161803 -0.070883
v 0.161803 0.117557 -0.070883
v 0.190211 0.061803 -0.070883
v 0.200000 -0.000000 -0.070883
v 0.190211 -0.061803 -0.070883
v 0.161803 -0.117557 -0.070883
v 0.117557 -0.161803 -0.070883
v 0.061803 -0.190211 -0.070883
v -0.000000 -0.200000 -0.070883
v -0.061803 -0.190211 -0.070883
v -0.117557 -0.161803 -0.070883
v -0.161803 -0.117557 -0.070883
v -0.190211 -0.061803 -0.070883
v -0.200000 -0.000000 -0.070883
v -0.190212 0.061803 -4.070883
v -0.161804 0.117557 -4.070883
v -0.117557 0.161803 -4.070883
v -0.061804 0.190211 -4.070883
v -0.000000 0.200000 -4.070883
v 0.061803 0.190211 -4.070883
v 0.117557 0.161803 -4.070883
v 0.161803 0.117557 -4.070883
v 0.190211 0.061803 -4.070883
v 0.200000 0.000000 -4.070883
v 0.190211 -0.061803 -4.070883
v 0.161803 -0.117557 -4.070883
v 0.117557 -0.161803 -4.070883
v 0.061803 -0.190211 -4.070883
v -0.000000 -0.200000 -4.070883
v -0.061803 -0.190211 -4.070883
v -0.117557 -0.161803 -4.070883
v -0.161803 -0.117557 -4.070883
v -0.190211 -0.061803 -4.070883
v -0.200000 0.000000 -4.070883
v -0.000000 -0.000000 -0.070883
v -0.000000 0.000000 -4.070883
v -0.380423 0.123607 -0.598361
v -0.323607 0.235114 -0.598361
v -0.235114 0.323607 -0.598361
v -0.123607 0.380423 -0.598361
v -0.000000 0.400000 -0.598361
v 0.123607 0.380423 -0.598361
v 0.235114 0.323607 -0.598361
v 0.323607 0.235114 -0.598361
v 0.380423 0.123607 -0.598361
v 0.400000 0.000000 -0.598361
v 0.380423 -0.123607 -0.598361
v 0.323607 -0.235114 -0.598361
v 0.235114 -0.323607 -0.598361
v 0.123607 -0.380423 -0.598361
v -0.000000 -0.400000 -0.598361
v -0.123607 -0.380423 -0.598361
v -0.235114 -0.323607 -0.598361
v -0.323607 -0.235114 -0.598361
v -0.380423 -0.123607 -0.598361
v -0.400000 0.000000 -0.598361
v -0.000000 0.000000 -1.993413
v -0.000000 -0.000000 2.000000
vt 0.648603 0.107966
vt 0.626409 0.064408
vt 0.591842 0.029841
vt 0.548284 0.007647
vt 0.500000 -0.000000
vt 0.451716 0.007647
vt 0.408159 0.029841
vt 0.373591 0.064409
vt 0.351397 0.107966
vt 0.343750 0.156250
vt 0.351397 0.204534
vt 0.373591 0.248091
vt 0.408159 0.282659
vt 0.451716 0.304853
vt 0.500000 0.312500
vt 0.548284 0.304853
vt 0.591841 0.282659
vt 0.626409 0.248091
vt 0.648603 0.204534
vt 0.656250 0.156250
vt 0.375000 0.312500
vt 0.387500 0.312500
vt 0.400000 0.312500
vt 0.412500 0.312500
vt 0.425000 0.312500
vt 0.437500 0.312500
vt 0.450000 0.312500
vt 0.462500 0.312500
vt 0.475000 0.312500
vt 0.487500 0.312500
vt 0.500000 0.312500
vt 0.512500 0.312500
vt 0.525000 0.312500
vt 0.537500 0.312500
vt 0.550000 0.312500
vt 0.562500 0.312500
vt 0.575000 0.312500
vt 0.587500 0.312500
vt 0.600000 0.312500
vt 0.612500 0.312500
vt 0.625000 0.312500
vt 0.375000 0.688440
vt 0.387500 0.688440
vt 0.400000 0.688440
vt 0.412500 0.688440
vt 0.425000 0.688440
vt 0.437500 0.688440
vt 0.450000 0.688440
vt 0.462500 0.688440
vt 0.475000 0.688440
vt 0.487500 0.688440
vt 0.500000 0.688440
vt 0.512500 0.688440
vt 0.525000 0.688440
vt 0.537500 0.688440
vt 0.550000 0.688440
vt 0.562500 0.688440
vt 0.575000 0.688440
vt 0.587500 0.688440
vt 0.600000 0.688440
vt 0.612500 0.688440
vt 0.625000 0.688440
vt 0.648603 0.795466
vt 0.626409 0.751908
vt 0.591842 0.717341
vt 0.548284 0.695147
vt 0.500000 0.687500
vt 0.451716 0.695147
vt 0.408159 0.717341
vt 0.373591 0.751909
vt 0.351397 0.795466
vt 0.343750 0.843750
vt 0.351397 0.892034
vt 0.373591 0.935591
vt 0.408159 0.970159
vt 0.451716 0.992353
vt 0.500000 1.000000
vt 0.548284 0.992353
vt 0.591841 0.970159
vt 0.626409 0.935591
vt 0.648603 0.892034
vt 0.656250 0.843750
vt 0.500000 0.150000
vt 0.500000 0.837500
vt 0.737725 0.172737
vt 0.749967 0.249978
vt 0.737740 0.327222
vt 0.702241 0.396909
vt 0.646945 0.452215
vt 0.577264 0.487728
vt 0.500019 0.499970
vt 0.422773 0.487743
vt 0.353086 0.452243
vt 0.297780 0.396945
vt 0.262270 0.327262
vt 0.250031 0.250016
vt 0.262262 0.172768
vt 0.297766 0.103080
vt 0.353067 0.047773
vt 0.422752 0.012262
vt 0.500000 0.000023
vt 0.577249 0.012253
vt 0.646917 0.047765
vt 0.702224 0.103059
vt 0.250325 0.500023
vt 0.274922 0.499807
vt 0.500000 1.000000
vt 0.299914 0.499785
vt 0.324929 0.499796
vt 0.349884 0.499612
vt 0.374897 0.499592
vt 0.399917 0.499591
vt 0.424937 0.499590
vt 0.449958 0.499590
vt 0.474978 0.499590
vt 0.499999 0.499590
vt 0.525019 0.499590
vt 0.550040 0.499590
vt 0.575060 0.499590
vt 0.600081 0.499590
vt 0.625101 0.499590
vt 0.650122 0.499590
vt 0.675142 0.499590
vt 0.700163 0.499590
vt 0.725168 0.499602
vt 0.749676 0.500020
vt 0.737552 0.172821
vt 0.749796 0.250055
vt 0.737582 0.327286
vt 0.702104 0.396955
vt 0.646835 0.452242
vt 0.577249 0.487749
vt 0.500000 0.499984
vt 0.422751 0.487749
vt 0.353064 0.452242
vt 0.297760 0.396939
vt 0.262252 0.327255
vt 0.250014 0.250012
vt 0.262241 0.172774
vt 0.297732 0.103101
vt 0.353011 0.047813
vt 0.422665 0.012321
vt 0.499880 0.000097
vt 0.577097 0.012338
vt 0.646759 0.047846
vt 0.702048 0.103145
vt 0.236598 0.469003
vt 0.261782 0.468282
vt 0.500000 1.000000
vt 0.288303 0.468245
vt 0.314891 0.468245
vt 0.341478 0.468245
vt 0.368066 0.468245
vt 0.394653 0.468245
vt 0.421240 0.468245
vt 0.447826 0.468245
vt 0.474408 0.468246
vt 0.500982 0.468247
vt 0.527533 0.468249
vt 0.554023 0.468255
vt 0.580359 0.468270
vt 0.606339 0.468306
vt 0.632297 0.468332
vt 0.659582 0.468313
vt 0.686967 0.468351
vt 0.713347 0.468365
vt 0.739351 0.468559
vt 0.764369 0.469081
vn -0.951057 0.309016 0.000000
vn -0.809017 0.587785 0.000000
vn -0.809017 0.587785 0.000000
vn -0.951057 0.309016 0.000000
vn -0.587785 0.809017 0.000000
vn -0.587785 0.809017 0.000000
vn -0.309017 0.951057 0.000000
vn -0.309017 0.951057 0.000000
vn 0.000000 1.000000 0.000000
vn 0.000000 1.000000 0.000000
vn 0.309017 0.951057 0.000000
vn 0.309017 0.951057 0.000000
vn 0.587785 0.809017 0.000000
vn 0.587785 0.809017 0.000000
vn 0.809017 0.587785 0.000000
vn 0.809017 0.587785 0.000000
vn 0.951057 0.309017 0.000000
vn 0.951057 0.309017 0.000000
vn 1.000000 0.000000 0.000000
vn 1.000000 0.000000 0.000000
vn 0.951057 -0.309017 0.000000
vn 0.951057 -0.309017 0.000000
vn 0.809017 -0.587785 0.000000
vn 0.809017 -0.587785 0.000000
vn 0.587785 -0.809017 0.000000
vn 0.587785 -0.809017 0.000000
vn 0.309017 -0.951057 0.000000
vn 0.309017 -0.951057 0.000000
vn -0.000000 -1.000000 0.000000
vn -0.000000 -1.000000 0.000000
vn -0.309017 -0.951056 0.000000
vn -0.309017 -0.951056 0.000000
vn -0.587785 -0.809017 0.000000
vn -0.587785 -0.809017 0.000000
vn -0.809017 -0.587785 0.000000
vn -0.809017 -0.587785 0.000000
vn -0.951057 -0.309017 0.000000
vn -0.951057 -0.309017 0.000000
vn -1.000000 -0.000001 0.000000
vn -1.000000 -0.000001 0.000000
vn 0.000000 0.000000 1.000000
vn 0.000000 0.000000 1.000000
vn 0.000000 0.000000 1.000000
vn 0.000000 0.000000 1.000000
vn 0.000000 0.000000 1.000000
vn 0.000000 0.000000 1.000000
vn 0.000000 0.000000 1.000000
vn 0.000000 0.000000 1.000000
vn -0.000000 0.000000 1.000000
vn 0.000000 0.000000 1.000000
vn 0.000000 0.000000 1.000000
vn 0.000000 0.000000 1.000000
vn 0.000000 0.000000 1.000000
vn 0.000000 0.000000 1.000000
vn 0.000000 0.000000 1.000000
vn 0.000000 0.000000 1.000000
vn -0.000000 0.000000 1.000000
vn 0.000000 0.000000 1.000000
vn 0.000000 0.000000 1.000000
vn -0.000000 0.000000 1.000000
vn 0.000000 0.000000 1.000000
vn 0.000000 0.000000 -1.000000
vn 0.000002 0.000000 -1.000000
vn 0.000000 0.000000 -1.000000
vn 0.000002 0.000000 -1.000000
vn 0.000000 0.000000 -1.000000
vn 0.000000 0.000000 -1.000000
vn 0.000000 0.000000 -1.000000
vn 0.000000 0.000000 -1.000000
vn 0.000000 0.000000 -1.000000
vn 0.000000 0.000000 -1.000000
vn 0.000000 0.000000 -1.000000
vn -0.000002 0.000000 -1.000000
vn -0.000002 0.000000 -1.000000
vn 0.000000 0.000000 -1.000000
vn 0.000000 0.000000 -1.000000
vn 0.000000 0.000000 -1.000000
vn 0.000000 0.000000 -1.000000
vn 0.000000 0.000000 -1.000000
vn 0.000002 0.000000 -1.000000
vn 0.000002 0.000000 -1.000000
vn 0.000000 0.000000 -1.000000
vn -0.000000 0.000000 1.000000
vn -0.000000 0.000000 1.000000
vn -0.000000 0.000000 1.000000
vn -0.000000 0.000000 1.000000
vn -0.000000 0.000000 1.000000
vn -0.000000 0.000000 1.000000
vn -0.000000 0.000000 1.000000
vn -0.000000 0.000000 1.000000
vn -0.000000 0.000000 1.000000
vn -0.000000 0.000000 1.000000
vn -0.000000 0.000000 1.000000
vn -0.000000 0.000000 1.000000
vn -0.000000 0.000000 1.000000
vn -0.000000 0.000000 1.000000
vn -0.000000 0.000000 1.000000
vn -0.000000 0.000000 1.000000
vn -0.000000 0.000000 1.000000
vn -0.000000 0.000000 1.000000
vn -0.000000 0.000000 1.000000
vn -0.000000 0.000000 1.000000
vn -0.914219 0.297047 -0.275622
vn -0.777681 0.565018 -0.275622
vn -0.000003 -0.000018 -1.000000
vn -0.565018 0.777681 -0.275622
vn -0.297047 0.914219 -0.275622
vn 0.000000 0.961266 -0.275622
vn 0.297048 0.914218 -0.275622
vn 0.565018 0.777681 -0.275622
vn 0.777681 0.565018 -0.275622
vn 0.914219 0.297048 -0.275622
vn 0.961266 0.000000 -0.275622
vn 0.914219 -0.297048 -0.275622
vn 0.777681 -0.565018 -0.275622
vn 0.565018 -0.777681 -0.275622
vn 0.297048 -0.914219 -0.275622
vn -0.000000 -0.961266 -0.275622
vn -0.297048 -0.914219 -0.275622
vn -0.565018 -0.777681 -0.275622
vn -0.777681 -0.565018 -0.275622
vn -0.914219 -0.297047 -0.275622
vn -0.961266 -0.000001 -0.275622
vn -0.000000 0.000000 -1.000000
vn -0.000000 0.000000 -1.000000
vn -0.000000 0.000000 -1.000000
vn -0.000000 0.000000 -1.000000
vn -0.000000 0.000000 -1.000000
vn -0.000000 0.000000 -1.000000
vn -0.000000 0.000000 -1.000000
vn -0.000000 0.000000 -1.000000
vn -0.000000 0.000000 -1.000000
vn -0.000000 0.000000 -1.000000
vn -0.000000 0.000000 -1.000000
vn -0.000000 0.000000 -1.000000
vn -0.000000 0.000000 -1.000000
vn -0.000000 0.000000 -1.000000
vn -0.000000 0.000000 -1.000000
vn -0.000000 0.000000 -1.000000
vn -0.000000 0.000000 -1.000000
vn -0.000000 0.000000 -1.000000
vn -0.000000 0.000000 -1.000000
vn -0.000000 0.000000 -1.000000
vn -0.939984 -0.305419 0.152151
vn -0.799598 -0.580942 0.152151
vn -0.000000 -0.000000 1.000000
vn -0.580942 -0.799598 0.152151
vn -0.305419 -0.939984 0.152151
vn -0.000000 -0.988357 0.152151
vn 0.305419 -0.939984 0.152151
vn 0.580942 -0.799598 0.152151
vn 0.799598 -0.580942 0.152151
vn 0.939984 -0.305419 0.152151
vn 0.988357 0.000000 0.152151
vn 0.939984 0.305419 0.152151
vn 0.799598 0.580942 0.152151
vn 0.580942 0.799598 0.152151
vn 0.305419 0.939984 0.152151
vn 0.000000 0.988357 0.152151
vn -0.305419 0.939984 0.152151
vn -0.580942 0.799598 0.152151
vn -0.799598 0.580942 0.152151
vn -0.939984 0.305418 0.152151
vn -0.988357 -0.000001 0.152151
s 1
g pCylinder2
usemtl initialShadingGroup
f 1/21/1 2/22/2 22/43/3 21/42/4
f 2/22/2 3/23/5 23/44/6 22/43/3
f 3/23/5 4/24/7 24/45/8 23/44/6
f 4/24/7 5/25/9 25/46/10 24/45/8
f 5/25/9 6/26/11 26/47/12 25/46/10
f 6/26/11 7/27/13 27/48/14 26/47/12
f 7/27/13 8/28/15 28/49/16 27/48/14
f 8/28/15 9/29/17 29/50/18 28/49/16
f 9/29/17 10/30/19 30/51/20 29/50/18
f 10/30/19 11/31/21 31/52/22 30/51/20
f 11/31/21 12/32/23 32/53/24 31/52/22
f 12/32/23 13/33/25 33/54/26 32/53/24
f 13/33/25 14/34/27 34/55/28 33/54/26
f 14/34/27 15/35/29 35/56/30 34/55/28
f 15/35/29 16/36/31 36/57/32 35/56/30
f 16/36/31 17/37/33 37/58/34 36/57/32
f 17/37/33 18/38/35 38/59/36 37/58/34
f 18/38/35 19/39/37 39/60/38 38/59/36
f 19/39/37 20/40/39 40/61/40 39/60/38
f 20/40/39 1/41/1 21/62/4 40/61/40
s 2
f 2/2/41 1/1/42 41/83/43
f 3/3/44 2/2/41 41/83/43
f 4/4/45 3/3/44 41/83/43
f 5/5/46 4/4/45 41/83/43
f 6/6/47 5/5/46 41/83/43
f 7/7/48 6/6/47 41/83/43
f 8/8/49 7/7/48 41/83/43
f 9/9/50 8/8/49 41/83/43
f 10/10/51 9/9/50 41/83/43
f 11/11/52 10/10/51 41/83/43
f 12/12/53 11/11/52 41/83/43
f 13/13/54 12/12/53 41/83/43
f 14/14/55 13/13/54 41/83/43
f 15/15/56 14/14/55 41/83/43
f 16/16/57 15/15/56 41/83/43
f 17/17/58 16/16/57 41/83/43
f 18/18/59 17/17/58 41/83/43
f 19/19/60 18/18/59 41/83/43
f 20/20/61 19/19/60 41/83/43
f 1/1/42 20/20/61 41/83/43
s 3
f 21/81/62 22/80/63 42/84/64
f 22/80/63 23/79/65 42/84/64
f 23/79/65 24/78/66 42/84/64
f 24/78/66 25/77/67 42/84/64
f 25/77/67 26/76/68 42/84/64
f 26/76/68 27/75/69 42/84/64
f 27/75/69 28/74/70 42/84/64
f 28/74/70 29/73/71 42/84/64
f 29/73/71 30/72/72 42/84/64
f 30/72/72 31/71/73 42/84/64
f 31/71/73 32/70/74 42/84/64
f 32/70/74 33/69/75 42/84/64
f 33/69/75 34/68/76 42/84/64
f 34/68/76 35/67/77 42/84/64
f 35/67/77 36/66/78 42/84/64
f 36/66/78 37/65/79 42/84/64
f 37/65/79 38/64/80 42/84/64
f 38/64/80 39/63/81 42/84/64
f 39/63/81 40/82/82 42/84/64
f 40/82/82 21/81/62 42/84/64
s off
f 43/85/83 62/86/84 61/87/85 60/88/86 59/89/87 58/90/88 57/91/89 56/92/90 55/93/91 54/94/92 53/95/93 52/96/94 51/97/95 50/98/96 49/99/97 48/100/98 47/101/99 46/102/100 45/103/101 44/104/102
s 4
f 43/105/103 44/106/104 63/107/105
f 44/106/104 45/108/106 63/107/105
f 45/108/106 46/109/107 63/107/105
f 46/109/107 47/110/108 63/107/105
f 47/110/108 48/111/109 63/107/105
f 48/111/109 49/112/110 63/107/105
f 49/112/110 50/113/111 63/107/105
f 50/113/111 51/114/112 63/107/105
f 51/114/112 52/115/113 63/107/105
f 52/115/113 53/116/114 63/107/105
f 53/116/114 54/117/115 63/107/105
f 54/117/115 55/118/116 63/107/105
f 55/118/116 56/119/117 63/107/105
f 56/119/117 57/120/118 63/107/105
f 57/120/118 58/121/119 63/107/105
f 58/121/119 59/122/120 63/107/105
f 59/122/120 60/123/121 63/107/105
f 60/123/121 61/124/122 63/107/105
f 61/124/122 62/125/123 63/107/105
f 62/125/123 43/126/103 63/107/105
s off
f 61/127/124 62/128/125 43/129/126 44/130/127 45/131/128 46/132/129 47/133/130 48/134/131 49/135/132 50/136/133 51/137/134 52/138/135 53/139/136 54/140/137 55/141/138 56/142/139 57/143/140 58/144/141 59/145/142 60/146/143
s 5
f 61/147/144 60/148/145 64/149/146
f 60/148/145 59/150/147 64/149/146
f 59/150/147 58/151/148 64/149/146
f 58/151/148 57/152/149 64/149/146
f 57/152/149 56/153/150 64/149/146
f 56/153/150 55/154/151 64/149/146
f 55/154/151 54/155/152 64/149/146
f 54/155/152 53/156/153 64/149/146
f 53/156/153 52/157/154 64/149/146
f 52/157/154 51/158/155 64/149/146
f 51/158/155 50/159/156 64/149/146
f 50/159/156 49/160/157 64/149/146
f 49/160/157 48/161/158 64/149/146
f 48/161/158 47/162/159 64/149/146
f 47/162/159 46/163/160 64/149/146
f 46/163/160 45/164/161 64/149/146
f 45/164/161 44/165/162 64/149/146
f 44/165/162 43/166/163 64/149/146
f 43/166/163 62/167/164 64/149/146
f 62/167/164 61/168/144 64/149/146
