# This file uses centimeters as units for non-parametric coordinates.

mtllib Wave.mtl
g default
v 1.000000 -0.343367 0.000000
v 0.951057 -0.343367 -0.309017
v 0.809017 -0.343367 -0.587785
v 0.587785 -0.343367 -0.809017
v 0.309017 -0.343367 -0.951057
v -0.000000 -0.343367 -1.000000
v -0.309017 -0.343367 -0.951057
v -0.587785 -0.343367 -0.809017
v -0.809017 -0.343367 -0.587785
v -0.951057 -0.343367 -0.309017
v -1.000000 -0.343367 0.000000
v -0.951057 -0.343367 0.309017
v -0.809017 -0.343367 0.587785
v -0.587785 -0.343367 0.809017
v -0.309017 -0.343367 0.951057
v 0.000000 -0.343367 1.000000
v 0.309017 -0.343367 0.951057
v 0.587786 -0.343367 0.809017
v 0.809018 -0.343367 0.587786
v 0.951057 -0.343367 0.309017
v 1.000000 0.257973 0.000000
v 0.951057 0.701232 -0.309017
v 0.809017 0.080629 -0.587785
v 0.587785 0.568134 -0.809017
v 0.309017 0.268847 -0.951057
v -0.000000 0.793876 -1.000000
v -0.309017 0.317145 -0.951057
v -0.587785 0.816157 -0.809017
v -0.809017 0.304375 -0.587785
v -0.951057 1.038117 -0.309017
v -1.000000 0.328883 0.000000
v -0.951057 0.701232 0.309017
v -0.809017 0.142923 0.587785
v -0.587785 0.568134 0.809017
v -0.309017 0.184285 0.951057
v 0.000000 0.793876 1.000000
v 0.309017 0.317654 0.951057
v 0.587786 0.816157 0.809017
v 0.809018 0.223162 0.587786
v 0.951057 1.034285 0.309017
vt -0.000595 0.909505
vt 0.050099 1.009240
vt 0.100020 0.877555
vt 0.150030 0.996064
vt 0.200002 0.914457
vt 0.250014 1.005591
vt 0.299967 0.908851
vt 0.350027 1.005169
vt 0.399973 0.897780
vt 0.450049 1.019122
vt 0.499963 0.905538
vt 0.550012 1.003208
vt 0.599964 0.889738
vt 0.650029 0.994701
vt 0.699975 0.893298
vt 0.750044 1.006462
vt 0.799971 0.909500
vt 0.850021 1.008539
vt 0.899952 0.884454
vt 0.949968 1.017875
vt 1.000421 0.871062
vt -0.000822 0.750014
vt 0.049831 0.750009
vt 0.100000 0.750010
vt 0.150099 0.750006
vt 0.199999 0.750005
vt 0.249904 0.750010
vt 0.299890 0.750010
vt 0.349890 0.750010
vt 0.399890 0.750010
vt 0.449890 0.750010
vt 0.499890 0.750010
vt 0.549890 0.750010
vt 0.599890 0.750010
vt 0.649890 0.750010
vt 0.699890 0.750010
vt 0.749890 0.750010
vt 0.799890 0.750010
vt 0.849893 0.750010
vt 0.899911 0.750011
vt 0.950016 0.750012
vt 1.000538 0.750024
vt 0.000045 0.499973
vt 0.050003 0.499985
vt 0.100000 0.499987
vt 0.150000 0.499993
vt 0.200000 0.499992
vt 0.250000 0.499986
vt 0.300000 0.499986
vt 0.350000 0.499986
vt 0.400000 0.499986
vt 0.450000 0.499986
vt 0.500000 0.499986
vt 0.550000 0.499986
vt 0.600000 0.499986
vt 0.650000 0.499986
vt 0.700000 0.499986
vt 0.750000 0.499986
vt 0.800000 0.499986
vt 0.850000 0.499986
vt 0.899999 0.499985
vt 0.949992 0.499984
vt 0.999955 0.499976
vt 0.000059 0.306241
vt 0.049997 0.222402
vt 0.100000 0.340029
vt 0.149999 0.234209
vt 0.199999 0.283510
vt 0.250000 0.221639
vt 0.300000 0.307758
vt 0.350000 0.224310
vt 0.399999 0.321076
vt 0.450000 0.218924
vt 0.500001 0.314071
vt 0.550002 0.225071
vt 0.600001 0.324628
vt 0.649999 0.225301
vt 0.699999 0.320721
vt 0.749999 0.221406
vt 0.800000 0.307549
vt 0.850001 0.223878
vt 0.900000 0.335086
vt 0.949998 0.221829
vt 0.999940 0.339949
vn -0.987688 0.000000 0.156434
vn -0.987688 0.000000 0.156434
vn -0.987688 0.000000 0.156434
vn -0.987688 0.000000 0.156434
vn -0.891007 -0.000000 0.453991
vn -0.891007 -0.000000 0.453991
vn -0.891006 -0.000000 0.453991
vn -0.891006 -0.000000 0.453991
vn -0.707107 0.000000 0.707107
vn -0.707107 0.000000 0.707107
vn -0.707107 0.000000 0.707107
vn -0.707107 0.000000 0.707107
vn -0.453990 0.000000 0.891007
vn -0.453990 0.000000 0.891007
vn -0.453990 0.000000 0.891007
vn -0.453990 0.000000 0.891007
vn -0.156435 0.000000 0.987688
vn -0.156435 0.000000 0.987688
vn -0.156435 0.000000 0.987688
vn -0.156435 0.000000 0.987688
vn 0.156434 0.000000 0.987688
vn 0.156434 0.000000 0.987688
vn 0.156434 0.000000 0.987688
vn 0.156434 0.000000 0.987688
vn 0.453991 0.000000 0.891007
vn 0.453991 0.000000 0.891007
vn 0.453991 0.000000 0.891007
vn 0.453991 0.000000 0.891007
vn 0.707107 0.000000 0.707107
vn 0.707107 0.000000 0.707107
vn 0.707107 0.000000 0.707107
vn 0.707107 0.000000 0.707107
vn 0.891007 0.000000 0.453991
vn 0.891007 0.000000 0.453991
vn 0.891007 0.000000 0.453991
vn 0.891007 0.000000 0.453991
vn 0.987688 0.000000 0.156434
vn 0.987688 0.000000 0.156434
vn 0.987688 0.000000 0.156434
vn 0.987688 0.000000 0.156434
vn 0.987688 0.000000 -0.156434
vn 0.987688 0.000000 -0.156434
vn 0.987688 0.000000 -0.156434
vn 0.987688 0.000000 -0.156434
vn 0.891007 0.000000 -0.453990
vn 0.891007 0.000000 -0.453990
vn 0.891007 0.000000 -0.453990
vn 0.891007 0.000000 -0.453990
vn 0.707107 0.000000 -0.707107
vn 0.707107 0.000000 -0.707107
vn 0.707107 0.000000 -0.707107
vn 0.707107 0.000000 -0.707107
vn 0.453991 0.000000 -0.891007
vn 0.453991 0.000000 -0.891007
vn 0.453991 0.000000 -0.891006
vn 0.453991 0.000000 -0.891007
vn 0.156435 0.000000 -0.987688
vn 0.156435 0.000000 -0.987688
vn 0.156435 0.000000 -0.987688
vn 0.156435 0.000000 -0.987688
vn -0.156435 0.000000 -0.987688
vn -0.156435 0.000000 -0.987688
vn -0.156435 0.000000 -0.987688
vn -0.156435 0.000000 -0.987688
vn -0.453990 0.000000 -0.891007
vn -0.453990 0.000000 -0.891007
vn -0.453990 0.000000 -0.891007
vn -0.453990 0.000000 -0.891007
vn -0.707107 0.000000 -0.707107
vn -0.707107 0.000000 -0.707107
vn -0.707107 0.000000 -0.707107
vn -0.707107 0.000000 -0.707107
vn -0.891007 0.000000 -0.453990
vn -0.891007 0.000000 -0.453990
vn -0.891007 0.000000 -0.453990
vn -0.891007 0.000000 -0.453990
vn -0.987689 0.000000 -0.156432
vn -0.987689 0.000000 -0.156432
vn -0.987689 0.000000 -0.156432
vn -0.987689 0.000000 -0.156432
vn 0.987688 0.000000 -0.156434
vn 0.987688 0.000000 -0.156434
vn 0.987688 0.000000 -0.156434
vn 0.987688 0.000000 -0.156434
vn 0.891007 0.000000 -0.453991
vn 0.891007 0.000000 -0.453991
vn 0.891006 0.000000 -0.453991
vn 0.891006 0.000000 -0.453991
vn 0.707107 0.000000 -0.707107
vn 0.707107 0.000000 -0.707107
vn 0.707107 0.000000 -0.707107
vn 0.707107 0.000000 -0.707107
vn 0.453990 0.000000 -0.891007
vn 0.453990 0.000000 -0.891007
vn 0.453990 0.000000 -0.891007
vn 0.453990 0.000000 -0.891007
vn 0.156435 0.000000 -0.987688
vn 0.156435 0.000000 -0.987688
vn 0.156435 0.000000 -0.987688
vn 0.156435 0.000000 -0.987688
vn -0.156434 0.000000 -0.987688
vn -0.156434 0.000000 -0.987688
vn -0.156434 0.000000 -0.987688
vn -0.156434 0.000000 -0.987688
vn -0.453991 0.000000 -0.891007
vn -0.453991 0.000000 -0.891007
vn -0.453991 0.000000 -0.891007
vn -0.453991 0.000000 -0.891007
vn -0.707107 0.000000 -0.707107
vn -0.707107 0.000000 -0.707107
vn -0.707107 0.000000 -0.707107
vn -0.707107 0.000000 -0.707107
vn -0.891007 0.000000 -0.453991
vn -0.891007 0.000000 -0.453991
vn -0.891007 0.000000 -0.453991
vn -0.891007 0.000000 -0.453991
vn -0.987688 0.000000 -0.156434
vn -0.987688 0.000000 -0.156434
vn -0.987688 0.000000 -0.156434
vn -0.987688 0.000000 -0.156434
vn -0.987688 0.000000 0.156434
vn -0.987688 0.000000 0.156434
vn -0.987688 0.000000 0.156434
vn -0.987688 0.000000 0.156434
vn -0.891007 0.000000 0.453990
vn -0.891007 0.000000 0.453990
vn -0.891007 0.000000 0.453990
vn -0.891007 0.000000 0.453990
vn -0.707107 0.000000 0.707107
vn -0.707107 0.000000 0.707107
vn -0.707107 0.000000 0.707107
vn -0.707107 0.000000 0.707107
vn -0.453991 0.000000 0.891007
vn -0.453991 0.000000 0.891006
vn -0.453991 0.000000 0.891007
vn -0.453991 0.000000 0.891007
vn -0.156435 0.000000 0.987688
vn -0.156435 0.000000 0.987688
vn -0.156435 0.000000 0.987688
vn -0.156435 0.000000 0.987688
vn 0.156435 0.000000 0.987688
vn 0.156435 0.000000 0.987688
vn 0.156435 0.000000 0.987688
vn 0.156435 0.000000 0.987688
vn 0.453990 0.000000 0.891007
vn 0.453990 0.000000 0.891007
vn 0.453990 0.000000 0.891007
vn 0.453990 0.000000 0.891007
vn 0.707107 0.000000 0.707107
vn 0.707107 0.000000 0.707107
vn 0.707107 0.000000 0.707107
vn 0.707107 0.000000 0.707107
vn 0.891007 0.000000 0.453990
vn 0.891007 0.000000 0.453990
vn 0.891007 0.000000 0.453990
vn 0.891007 0.000000 0.453990
vn 0.987689 0.000000 0.156432
vn 0.987689 0.000000 0.156432
vn 0.987689 0.000000 0.156432
vn 0.987689 0.000000 0.156432
s off
g pPipe1
usemtl initialShadingGroup
f 2/2/1 1/1/2 21/22/3 22/23/4
f 3/3/5 2/2/6 22/23/7 23/24/8
f 4/4/9 3/3/10 23/24/11 24/25/12
f 5/5/13 4/4/14 24/25/15 25/26/16
f 6/6/17 5/5/18 25/26/19 26/27/20
f 7/7/21 6/6/22 26/27/23 27/28/24
f 8/8/25 7/7/26 27/28/27 28/29/28
f 9/9/29 8/8/30 28/29/31 29/30/32
f 10/10/33 9/9/34 29/30/35 30/31/36
f 11/11/37 10/10/38 30/31/39 31/32/40
f 12/12/41 11/11/42 31/32/43 32/33/44
f 13/13/45 12/12/46 32/33/47 33/34/48
f 14/14/49 13/13/50 33/34/51 34/35/52
f 15/15/53 14/14/54 34/35/55 35/36/56
f 16/16/57 15/15/58 35/36/59 36/37/60
f 17/17/61 16/16/62 36/37/63 37/38/64
f 18/18/65 17/17/66 37/38/67 38/39/68
f 19/19/69 18/18/70 38/39/71 39/40/72
f 20/20/73 19/19/74 39/40/75 40/41/76
f 1/21/77 20/20/78 40/41/79 21/42/80
f 22/44/81 21/43/82 1/64/83 2/65/84
f 23/45/85 22/44/86 2/65/87 3/66/88
f 24/46/89 23/45/90 3/66/91 4/67/92
f 25/47/93 24/46/94 4/67/95 5/68/96
f 26/48/97 25/47/98 5/68/99 6/69/100
f 27/49/101 26/48/102 6/69/103 7/70/104
f 28/50/105 27/49/106 7/70/107 8/71/108
f 29/51/109 28/50/110 8/71/111 9/72/112
f 30/52/113 29/51/114 9/72/115 10/73/116
f 31/53/117 30/52/118 10/73/119 11/74/120
f 32/54/121 31/53/122 11/74/123 12/75/124
f 33/55/125 32/54/126 12/75/127 13/76/128
f 34/56/129 33/55/130 13/76/131 14/77/132
f 35/57/133 34/56/134 14/77/135 15/78/136
f 36/58/137 35/57/138 15/78/139 16/79/140
f 37/59/141 36/58/142 16/79/143 17/80/144
f 38/60/145 37/59/146 17/80/147 18/81/148
f 39/61/149 38/60/150 18/81/151 19/82/152
f 40/62/153 39/61/154 19/82/155 20/83/156
f 21/63/157 40/62/158 20/83/159 1/84/160
