# This file uses centimeters as units for non-parametric coordinates.

mtllib wave2.mtl
g default
v 1.000000 -0.343367 0.000000
v 0.951057 -0.343367 -0.309017
v 0.809017 -0.343367 -0.587785
v 0.587785 -0.343367 -0.809017
v 0.309017 -0.343367 -0.951056
v -0.000000 -0.343367 -1.000000
v -0.309017 -0.343367 -0.951057
v -0.587785 -0.343367 -0.809017
v -0.809017 -0.343367 -0.587785
v -0.951057 -0.343367 -0.309017
v -1.000000 -0.343367 0.000000
v -0.951057 -0.343367 0.309017
v -0.809017 -0.343367 0.587785
v -0.587785 -0.343367 0.809017
v -0.309017 -0.343367 0.951057
v -0.000000 -0.343367 1.000000
v 0.309017 -0.343367 0.951057
v 0.587786 -0.343367 0.809017
v 0.809018 -0.343367 0.587786
v 0.951057 -0.343367 0.309017
v 1.222183 0.257973 0.000000
v 1.162365 0.701232 -0.377675
v 0.988767 0.080629 -0.718381
v 0.718381 0.568134 -0.988767
v 0.377675 0.268847 -1.162365
v -0.000000 0.793876 -1.222183
v -0.377675 0.317145 -1.162366
v -0.718381 0.816157 -0.988767
v -0.988767 0.304375 -0.718381
v -1.162366 1.038117 -0.377675
v -1.222183 0.328883 0.000000
v -1.162366 0.701232 0.377675
v -0.988767 0.142923 0.718381
v -0.718382 0.568134 0.988767
v -0.377676 0.184285 1.162366
v 0.000000 0.793876 1.222184
v 0.377676 0.317654 1.162366
v 0.718382 0.816157 0.988768
v 0.988768 0.223162 0.718382
v 1.162366 1.034285 0.377676
v 1.222183 -0.343367 0.000000
v 1.162365 -0.343367 -0.377675
v 0.988767 -0.343367 -0.718381
v 0.718381 -0.343367 -0.988767
v 0.377675 -0.343367 -1.162365
v -0.000000 -0.343367 -1.222183
v -0.377676 -0.343367 -1.162366
v -0.718381 -0.343367 -0.988767
v -0.988767 -0.343367 -0.718381
v -1.162366 -0.343367 -0.377676
v -1.222183 -0.343367 0.000000
v -1.162366 -0.343367 0.377676
v -0.988767 -0.343367 0.718381
v -0.718382 -0.343367 0.988767
v -0.377676 -0.343367 1.162366
v -0.000000 -0.343367 1.222184
v 0.377676 -0.343367 1.162366
v 0.718382 -0.343367 0.988768
v 0.988768 -0.343367 0.718382
v 1.162366 -0.343367 0.377676
vt -0.000602 0.905942
vt 0.050095 1.010428
vt 0.100039 0.867301
vt 0.150050 0.993646
vt 0.200014 0.905707
vt 0.250008 1.008478
vt 0.299963 0.903464
vt 0.350026 1.005073
vt 0.399968 0.889940
vt 0.450047 1.022551
vt 0.499968 0.899682
vt 0.550015 1.000939
vt 0.599959 0.880394
vt 0.650027 0.992217
vt 0.699968 0.884649
vt 0.750041 1.008266
vt 0.799972 0.904358
vt 0.850018 1.008325
vt 0.899934 0.874599
vt 0.949964 1.016627
vt 1.000440 0.869159
vt -0.210284 1.648701
vt -0.151707 1.674898
vt -0.063938 1.610739
vt 0.001400 1.601088
vt 0.084672 1.521826
vt 0.151690 1.443247
vt 0.226893 1.396109
vt 0.292465 1.334840
vt 0.361767 1.296918
vt 0.423440 1.275622
vt 0.488133 1.277282
vt 0.550128 1.243354
vt 0.522092 0.940127
vt 0.544708 0.446413
vt 0.620927 0.534416
vt 0.682928 0.516236
vt 0.753616 0.609365
vt 0.817511 0.599293
vt 0.883051 0.666422
vt 0.943769 0.663447
vt 1.006081 0.734732
vt -0.209592 -0.513126
vt -0.151818 -0.517624
vt -0.064363 -0.451007
vt 0.001107 -0.443416
vt 0.084441 -0.365098
vt 0.151466 -0.262851
vt 0.226720 -0.213390
vt 0.292297 -0.137867
vt 0.361608 -0.098590
vt 0.423285 -0.060612
vt 0.487982 -0.068718
vt 0.550009 -0.035770
vt 0.521656 0.261803
vt 0.544335 0.803685
vt 0.620594 0.707300
vt 0.682608 0.742409
vt 0.753331 0.639192
vt 0.817280 0.660252
vt 0.882861 0.585167
vt 0.943613 0.600843
vt 1.005454 0.508072
vt 0.000074 0.317666
vt 0.050000 0.216450
vt 0.100000 0.365590
vt 0.149997 0.226210
vt 0.199998 0.314358
vt 0.249999 0.211252
vt 0.300000 0.324560
vt 0.350000 0.218503
vt 0.399999 0.342735
vt 0.450000 0.208732
vt 0.500002 0.331999
vt 0.550004 0.222212
vt 0.600001 0.347739
vt 0.649999 0.223033
vt 0.699998 0.343165
vt 0.749998 0.213373
vt 0.800000 0.324697
vt 0.850002 0.217934
vt 0.900000 0.360212
vt 0.949993 0.215062
vt 0.999926 0.354872
vt 0.050099 1.009240
vt -0.000595 0.909505
vt -0.000775 0.753320
vt 0.049827 0.747235
vt 0.100020 0.877555
vt 0.099987 0.758801
vt 0.150030 0.996064
vt 0.150088 0.749290
vt 0.200002 0.914457
vt 0.199994 0.756238
vt 0.250014 1.005591
vt 0.249908 0.746212
vt 0.299967 0.908851
vt 0.299893 0.755158
vt 0.350027 1.005169
vt 0.349889 0.748199
vt 0.399973 0.897780
vt 0.399894 0.756427
vt 0.450049 1.019122
vt 0.449889 0.745578
vt 0.499963 0.905538
vt 0.499888 0.755755
vt 0.550012 1.003208
vt 0.549888 0.748494
vt 0.599964 0.889738
vt 0.599894 0.757325
vt 0.650029 0.994701
vt 0.649890 0.749170
vt 0.699975 0.893298
vt 0.699895 0.756704
vt 0.750044 1.006462
vt 0.749890 0.746690
vt 0.799971 0.909500
vt 0.799891 0.754903
vt 0.850021 1.008539
vt 0.849895 0.748177
vt 0.899952 0.884454
vt 0.899923 0.758214
vt 0.949968 1.017875
vt 0.950015 0.747166
vt 1.000421 0.871062
vt 1.000477 0.751820
vt 0.050001 0.506710
vt 0.000072 0.488629
vt 0.000059 0.306241
vt 0.049997 0.222402
vt 0.100000 0.481426
vt 0.100000 0.340029
vt 0.150001 0.505837
vt 0.149999 0.234209
vt 0.200000 0.479933
vt 0.199999 0.283510
vt 0.250000 0.509239
vt 0.250000 0.221639
vt 0.300000 0.487348
vt 0.300000 0.307758
vt 0.350000 0.505290
vt 0.350000 0.224310
vt 0.400000 0.484841
vt 0.399999 0.321076
vt 0.450000 0.508481
vt 0.450000 0.218924
vt 0.500000 0.486340
vt 0.500001 0.314071
vt 0.549999 0.505771
vt 0.550002 0.225071
vt 0.600000 0.484169
vt 0.600001 0.324628
vt 0.650000 0.503933
vt 0.649999 0.225301
vt 0.700000 0.484601
vt 0.699999 0.320721
vt 0.750000 0.507050
vt 0.749999 0.221406
vt 0.800000 0.487416
vt 0.800000 0.307549
vt 0.850000 0.505505
vt 0.850001 0.223878
vt 0.899999 0.482023
vt 0.900000 0.335086
vt 0.949991 0.506929
vt 0.949998 0.221829
vt 0.999927 0.483695
vt 0.999940 0.339949
vt 0.000000 0.000000
vt 1.000000 0.000000
vt 0.908824 0.001320
vt 0.091732 0.003468
vt 0.000000 0.000000
vt 1.000000 0.000000
vt 0.908268 0.002822
vt 0.091176 0.001320
vt 0.000000 0.000000
vt 1.000000 0.000000
vt 0.908269 0.002820
vt 0.091176 0.001318
vt 0.000000 0.000000
vt 1.000000 0.000000
vt 0.908269 0.002820
vt 0.091176 0.001318
vt 0.000000 0.000000
vt 1.000000 0.000000
vt 0.908269 0.002820
vt 0.091176 0.001318
vt 0.000000 0.000000
vt 1.000000 0.000000
vt 0.908268 0.002820
vt 0.091176 0.001318
vt 0.000000 0.000000
vt 1.000000 0.000000
vt 0.908269 0.002820
vt 0.091176 0.001318
vt 0.000000 0.000000
vt 1.000000 0.000000
vt 0.908268 0.002820
vt 0.091176 0.001318
vt 0.000000 0.000000
vt 1.000000 0.000000
vt 0.908268 0.002820
vt 0.091176 0.001318
vt 0.000000 0.000000
vt 1.000000 0.000000
vt 0.908269 0.002820
vt 0.091176 0.001318
vt 0.000000 0.000000
vt 1.000000 0.000000
vt 0.908268 0.002820
vt 0.091176 0.001318
vt 0.000000 0.000000
vt 1.000000 0.000000
vt 0.908269 0.002820
vt 0.091176 0.001318
vt 0.000000 0.000000
vt 1.000000 0.000000
vt 0.908268 0.002820
vt 0.091176 0.001318
vt 0.000000 0.000000
vt 1.000000 0.000000
vt 0.908268 0.002820
vt 0.091176 0.001318
vt 0.000000 0.000000
vt 1.000000 0.000000
vt 0.908269 0.002820
vt 0.091176 0.001318
vt 0.000000 0.000000
vt 1.000000 0.000000
vt 0.908268 0.002820
vt 0.091176 0.001318
vt 0.000000 0.000000
vt 1.000000 0.000000
vt 0.908268 0.002820
vt 0.091176 0.001318
vt 0.000000 0.000000
vt 1.000000 0.000000
vt 0.908268 0.002820
vt 0.091176 0.001318
vt 0.000000 0.000000
vt 1.000000 0.000000
vt 0.908269 0.002820
vt 0.091176 0.001318
vt 0.000000 0.000000
vt 1.000000 0.000000
vt 0.908270 0.003466
vt 0.091177 0.001318
vn -0.916364 0.254244 0.309252
vn -0.916364 0.254244 0.309252
vn -0.916364 0.254244 0.309252
vn -0.916364 0.254244 0.309252
vn -0.939532 0.277422 0.200788
vn -0.939532 0.277422 0.200788
vn -0.939532 0.277422 0.200788
vn -0.939532 0.277422 0.200788
vn -0.505002 0.304988 0.807438
vn -0.505002 0.304988 0.807438
vn -0.505002 0.304988 0.807438
vn -0.505002 0.304988 0.807438
vn -0.538607 0.274845 0.796469
vn -0.538607 0.274845 0.796469
vn -0.538607 0.274845 0.796469
vn -0.538607 0.274845 0.796469
vn 0.029273 0.239328 0.970497
vn 0.029273 0.239328 0.970498
vn 0.029273 0.239328 0.970498
vn 0.029273 0.239328 0.970498
vn -0.008541 0.234095 0.972176
vn -0.008541 0.234095 0.972176
vn -0.008541 0.234095 0.972176
vn -0.008541 0.234095 0.972176
vn 0.583062 0.231178 0.778842
vn 0.583062 0.231178 0.778842
vn 0.583062 0.231178 0.778842
vn 0.583062 0.231178 0.778842
vn 0.555973 0.232509 0.798019
vn 0.555973 0.232509 0.798019
vn 0.555973 0.232509 0.798019
vn 0.555973 0.232509 0.798019
vn 0.948829 0.206327 0.239067
vn 0.948829 0.206327 0.239067
vn 0.948829 0.206327 0.239067
vn 0.948829 0.206327 0.239067
vn 0.912033 0.204394 0.355555
vn 0.912033 0.204394 0.355555
vn 0.912033 0.204394 0.355555
vn 0.912033 0.204394 0.355555
vn 0.928036 0.245525 -0.280118
vn 0.928036 0.245525 -0.280119
vn 0.928036 0.245525 -0.280118
vn 0.928036 0.245525 -0.280119
vn 0.934366 0.269081 -0.233571
vn 0.934366 0.269081 -0.233571
vn 0.934366 0.269081 -0.233571
vn 0.934366 0.269081 -0.233571
vn 0.536155 0.294667 -0.791018
vn 0.536155 0.294667 -0.791018
vn 0.536155 0.294667 -0.791018
vn 0.536155 0.294667 -0.791018
vn 0.570393 0.287994 -0.769228
vn 0.570393 0.287994 -0.769228
vn 0.570393 0.287994 -0.769228
vn 0.570393 0.287994 -0.769228
vn -0.067811 0.248772 -0.966186
vn -0.067811 0.248772 -0.966186
vn -0.067811 0.248772 -0.966186
vn -0.067811 0.248772 -0.966186
vn 0.008327 0.234040 -0.972191
vn 0.008327 0.234040 -0.972191
vn 0.008327 0.234040 -0.972191
vn 0.008327 0.234040 -0.972191
vn -0.582900 0.231125 -0.778980
vn -0.582900 0.231125 -0.778980
vn -0.582900 0.231125 -0.778980
vn -0.582900 0.231125 -0.778980
vn -0.525196 0.241165 -0.816093
vn -0.525196 0.241165 -0.816093
vn -0.525196 0.241166 -0.816093
vn -0.525196 0.241165 -0.816093
vn -0.954764 0.213281 -0.207212
vn -0.954764 0.213281 -0.207212
vn -0.954764 0.213281 -0.207212
vn -0.954764 0.213281 -0.207212
vn -0.900498 0.210454 -0.380543
vn -0.900498 0.210454 -0.380543
vn -0.900498 0.210454 -0.380543
vn -0.900498 0.210454 -0.380543
vn 0.916364 -0.254244 -0.309252
vn 0.916364 -0.254244 -0.309252
vn 0.916364 -0.254244 -0.309252
vn 0.916364 -0.254244 -0.309252
vn 0.939532 -0.277422 -0.200788
vn 0.939532 -0.277422 -0.200788
vn 0.939532 -0.277422 -0.200788
vn 0.939532 -0.277422 -0.200788
vn 0.505002 -0.304988 -0.807438
vn 0.505002 -0.304988 -0.807438
vn 0.505002 -0.304988 -0.807438
vn 0.505002 -0.304988 -0.807438
vn 0.538607 -0.274845 -0.796469
vn 0.538607 -0.274845 -0.796469
vn 0.538607 -0.274845 -0.796469
vn 0.538607 -0.274845 -0.796469
vn -0.029273 -0.239328 -0.970498
vn -0.029273 -0.239328 -0.970498
vn -0.029273 -0.239328 -0.970498
vn -0.029273 -0.239328 -0.970498
vn 0.008541 -0.234095 -0.972176
vn 0.008541 -0.234095 -0.972176
vn 0.008541 -0.234095 -0.972176
vn 0.008541 -0.234095 -0.972176
vn -0.583062 -0.231178 -0.778842
vn -0.583062 -0.231178 -0.778842
vn -0.583062 -0.231178 -0.778842
vn -0.583062 -0.231178 -0.778842
vn -0.555973 -0.232509 -0.798019
vn -0.555973 -0.232509 -0.798019
vn -0.555973 -0.232509 -0.798019
vn -0.555973 -0.232509 -0.798019
vn -0.948829 -0.206327 -0.239067
vn -0.948829 -0.206327 -0.239067
vn -0.948829 -0.206327 -0.239067
vn -0.948829 -0.206327 -0.239067
vn -0.912033 -0.204394 -0.355555
vn -0.912033 -0.204394 -0.355555
vn -0.912033 -0.204394 -0.355555
vn -0.912033 -0.204394 -0.355555
vn -0.928036 -0.245525 0.280119
vn -0.928036 -0.245525 0.280118
vn -0.928036 -0.245525 0.280119
vn -0.928036 -0.245525 0.280118
vn -0.934366 -0.269081 0.233571
vn -0.934366 -0.269081 0.233571
vn -0.934366 -0.269081 0.233571
vn -0.934366 -0.269081 0.233571
vn -0.536155 -0.294667 0.791018
vn -0.536155 -0.294667 0.791018
vn -0.536155 -0.294667 0.791018
vn -0.536155 -0.294667 0.791018
vn -0.570393 -0.287994 0.769228
vn -0.570393 -0.287994 0.769228
vn -0.570393 -0.287994 0.769228
vn -0.570393 -0.287994 0.769228
vn 0.067811 -0.248772 0.966186
vn 0.067811 -0.248772 0.966186
vn 0.067811 -0.248772 0.966186
vn 0.067811 -0.248772 0.966186
vn -0.008327 -0.234040 0.972191
vn -0.008327 -0.234040 0.972191
vn -0.008327 -0.234040 0.972191
vn -0.008327 -0.234040 0.972191
vn 0.582900 -0.231125 0.778980
vn 0.582900 -0.231125 0.778980
vn 0.582900 -0.231125 0.778980
vn 0.582900 -0.231125 0.778980
vn 0.525196 -0.241165 0.816093
vn 0.525196 -0.241165 0.816093
vn 0.525196 -0.241165 0.816093
vn 0.525196 -0.241165 0.816093
vn 0.954764 -0.213281 0.207212
vn 0.954764 -0.213281 0.207212
vn 0.954764 -0.213281 0.207212
vn 0.954764 -0.213281 0.207212
vn 0.900498 -0.210454 0.380543
vn 0.900498 -0.210454 0.380543
vn 0.900498 -0.210454 0.380543
vn 0.900498 -0.210454 0.380543
vn -0.987688 0.000000 0.156434
vn -0.987688 0.000000 0.156434
vn -0.987688 0.000000 0.156434
vn -0.987688 0.000000 0.156434
vn -0.891006 -0.000000 0.453991
vn -0.891006 -0.000000 0.453991
vn -0.891006 -0.000000 0.453991
vn -0.891006 -0.000000 0.453991
vn -0.707107 0.000000 0.707107
vn -0.707107 0.000000 0.707107
vn -0.707107 0.000000 0.707107
vn -0.707107 0.000000 0.707107
vn -0.453990 0.000000 0.891007
vn -0.453990 0.000000 0.891007
vn -0.453990 0.000000 0.891007
vn -0.453990 0.000000 0.891007
vn -0.156434 0.000000 0.987688
vn -0.156434 0.000000 0.987689
vn -0.156434 0.000000 0.987688
vn -0.156434 0.000000 0.987688
vn 0.156433 0.000000 0.987689
vn 0.156433 0.000000 0.987689
vn 0.156433 0.000000 0.987689
vn 0.156433 0.000000 0.987689
vn 0.453991 -0.000000 0.891007
vn 0.453991 -0.000000 0.891007
vn 0.453991 -0.000000 0.891007
vn 0.453991 -0.000000 0.891006
vn 0.707107 -0.000000 0.707107
vn 0.707107 -0.000000 0.707107
vn 0.707107 -0.000000 0.707107
vn 0.707107 -0.000000 0.707107
vn 0.891006 -0.000000 0.453991
vn 0.891006 -0.000000 0.453991
vn 0.891006 -0.000000 0.453991
vn 0.891006 -0.000000 0.453991
vn 0.987688 0.000000 0.156434
vn 0.987688 0.000000 0.156434
vn 0.987688 0.000000 0.156434
vn 0.987688 0.000000 0.156434
vn 0.987689 -0.000000 -0.156434
vn 0.987689 -0.000000 -0.156434
vn 0.987688 -0.000000 -0.156434
vn 0.987689 -0.000000 -0.156434
vn 0.891006 0.000000 -0.453991
vn 0.891006 0.000000 -0.453991
vn 0.891006 0.000000 -0.453991
vn 0.891007 0.000000 -0.453991
vn 0.707107 0.000000 -0.707107
vn 0.707107 0.000000 -0.707107
vn 0.707107 0.000000 -0.707107
vn 0.707107 0.000000 -0.707107
vn 0.453991 -0.000000 -0.891006
vn 0.453991 -0.000000 -0.891006
vn 0.453991 -0.000000 -0.891006
vn 0.453991 -0.000000 -0.891006
vn 0.156434 -0.000000 -0.987688
vn 0.156434 -0.000000 -0.987688
vn 0.156434 -0.000000 -0.987688
vn 0.156434 -0.000000 -0.987688
vn -0.156434 -0.000000 -0.987688
vn -0.156434 -0.000000 -0.987688
vn -0.156434 -0.000000 -0.987688
vn -0.156434 -0.000000 -0.987688
vn -0.453990 -0.000000 -0.891007
vn -0.453990 -0.000000 -0.891007
vn -0.453990 -0.000000 -0.891007
vn -0.453990 -0.000000 -0.891007
vn -0.707107 -0.000000 -0.707107
vn -0.707107 -0.000000 -0.707107
vn -0.707107 -0.000000 -0.707107
vn -0.707107 -0.000000 -0.707107
vn -0.891007 0.000000 -0.453990
vn -0.891007 0.000000 -0.453991
vn -0.891007 0.000000 -0.453991
vn -0.891007 0.000000 -0.453990
vn -0.987689 -0.000000 -0.156432
vn -0.987689 -0.000000 -0.156432
vn -0.987689 -0.000000 -0.156432
vn -0.987689 -0.000000 -0.156432
vn 0.987688 -0.000000 -0.156434
vn 0.987688 -0.000000 -0.156434
vn 0.987688 -0.000000 -0.156434
vn 0.987688 -0.000000 -0.156434
vn 0.891006 0.000000 -0.453991
vn 0.891006 0.000000 -0.453991
vn 0.891006 0.000000 -0.453991
vn 0.891006 0.000000 -0.453991
vn 0.707107 -0.000000 -0.707107
vn 0.707107 -0.000000 -0.707107
vn 0.707107 -0.000000 -0.707107
vn 0.707107 -0.000000 -0.707107
vn 0.453990 0.000000 -0.891007
vn 0.453990 0.000000 -0.891007
vn 0.453990 0.000000 -0.891007
vn 0.453990 0.000000 -0.891007
vn 0.156434 -0.000000 -0.987688
vn 0.156434 -0.000000 -0.987688
vn 0.156434 -0.000000 -0.987689
vn 0.156434 -0.000000 -0.987688
vn -0.156433 -0.000000 -0.987689
vn -0.156433 -0.000000 -0.987689
vn -0.156433 -0.000000 -0.987689
vn -0.156433 -0.000000 -0.987689
vn -0.453991 0.000000 -0.891006
vn -0.453991 0.000000 -0.891007
vn -0.453991 0.000000 -0.891007
vn -0.453991 0.000000 -0.891007
vn -0.707107 0.000000 -0.707107
vn -0.707107 0.000000 -0.707107
vn -0.707107 0.000000 -0.707107
vn -0.707107 0.000000 -0.707107
vn -0.891006 0.000000 -0.453991
vn -0.891006 0.000000 -0.453991
vn -0.891006 0.000000 -0.453991
vn -0.891006 0.000000 -0.453991
vn -0.987688 -0.000000 -0.156434
vn -0.987688 -0.000000 -0.156434
vn -0.987688 -0.000000 -0.156434
vn -0.987688 -0.000000 -0.156434
vn -0.987689 0.000000 0.156434
vn -0.987688 0.000000 0.156434
vn -0.987689 0.000000 0.156434
vn -0.987689 0.000000 0.156434
vn -0.891007 -0.000000 0.453991
vn -0.891006 -0.000000 0.453991
vn -0.891006 -0.000000 0.453991
vn -0.891006 -0.000000 0.453991
vn -0.707107 -0.000000 0.707107
vn -0.707107 -0.000000 0.707107
vn -0.707107 -0.000000 0.707107
vn -0.707107 -0.000000 0.707107
vn -0.453991 0.000000 0.891006
vn -0.453991 0.000000 0.891006
vn -0.453991 0.000000 0.891006
vn -0.453991 0.000000 0.891006
vn -0.156434 0.000000 0.987688
vn -0.156434 0.000000 0.987688
vn -0.156434 0.000000 0.987688
vn -0.156434 0.000000 0.987688
vn 0.156434 0.000000 0.987688
vn 0.156434 0.000000 0.987688
vn 0.156434 0.000000 0.987688
vn 0.156434 0.000000 0.987688
vn 0.453990 0.000000 0.891007
vn 0.453990 0.000000 0.891007
vn 0.453990 0.000000 0.891007
vn 0.453990 0.000000 0.891007
vn 0.707107 0.000000 0.707107
vn 0.707107 0.000000 0.707107
vn 0.707107 0.000000 0.707107
vn 0.707107 0.000000 0.707107
vn 0.891007 -0.000000 0.453990
vn 0.891007 -0.000000 0.453991
vn 0.891007 -0.000000 0.453991
vn 0.891007 -0.000000 0.453990
vn 0.987689 0.000000 0.156432
vn 0.987689 0.000000 0.156432
vn 0.987689 0.000000 0.156432
vn 0.987689 0.000000 0.156432
vn 0.000000 1.000000 -0.000000
vn 0.000000 1.000000 -0.000000
vn 0.000000 1.000000 -0.000000
vn 0.000000 1.000000 -0.000000
vn 0.000000 1.000000 0.000000
vn 0.000000 1.000000 0.000000
vn 0.000000 1.000000 0.000000
vn 0.000000 1.000000 0.000000
vn 0.000000 1.000000 0.000000
vn 0.000000 1.000000 0.000000
vn 0.000000 1.000000 0.000000
vn 0.000000 1.000000 0.000000
vn 0.000000 1.000000 0.000000
vn 0.000000 1.000000 0.000000
vn 0.000000 1.000000 0.000000
vn 0.000000 1.000000 0.000000
vn 0.000000 1.000000 0.000000
vn 0.000000 1.000000 0.000000
vn 0.000000 1.000000 0.000000
vn 0.000000 1.000000 0.000000
vn 0.000000 1.000000 -0.000000
vn 0.000000 1.000000 -0.000000
vn 0.000000 1.000000 -0.000000
vn 0.000000 1.000000 -0.000000
vn 0.000000 1.000000 0.000000
vn 0.000000 1.000000 0.000000
vn 0.000000 1.000000 0.000000
vn 0.000000 1.000000 0.000000
vn 0.000000 1.000000 0.000000
vn 0.000000 1.000000 0.000000
vn 0.000000 1.000000 0.000000
vn 0.000000 1.000000 0.000000
vn 0.000000 1.000000 0.000000
vn 0.000000 1.000000 0.000000
vn 0.000000 1.000000 0.000000
vn 0.000000 1.000000 0.000000
vn 0.000000 1.000000 -0.000000
vn 0.000000 1.000000 -0.000000
vn 0.000000 1.000000 -0.000000
vn 0.000000 1.000000 -0.000000
vn 0.000000 1.000000 0.000000
vn 0.000000 1.000000 0.000000
vn 0.000000 1.000000 0.000000
vn 0.000000 1.000000 0.000000
vn 0.000000 1.000000 0.000000
vn 0.000000 1.000000 0.000000
vn 0.000000 1.000000 0.000000
vn 0.000000 1.000000 0.000000
vn 0.000000 1.000000 0.000000
vn 0.000000 1.000000 0.000000
vn 0.000000 1.000000 0.000000
vn 0.000000 1.000000 0.000000
vn 0.000000 1.000000 0.000000
vn 0.000000 1.000000 0.000000
vn 0.000000 1.000000 0.000000
vn 0.000000 1.000000 0.000000
vn 0.000000 1.000000 0.000000
vn 0.000000 1.000000 0.000000
vn 0.000000 1.000000 0.000000
vn 0.000000 1.000000 0.000000
vn 0.000000 1.000000 0.000000
vn 0.000000 1.000000 0.000000
vn 0.000000 1.000000 0.000000
vn 0.000000 1.000000 0.000000
vn 0.000000 1.000000 -0.000000
vn 0.000000 1.000000 -0.000000
vn 0.000000 1.000000 -0.000000
vn 0.000000 1.000000 -0.000000
vn 0.000000 1.000000 0.000000
vn 0.000000 1.000000 0.000000
vn 0.000000 1.000000 0.000000
vn 0.000000 1.000000 0.000000
vn 0.000000 1.000000 0.000000
vn 0.000000 1.000000 0.000000
vn 0.000000 1.000000 0.000000
vn 0.000000 1.000000 0.000000
vn 0.000000 1.000000 0.000000
vn 0.000000 1.000000 0.000000
vn 0.000000 1.000000 0.000000
vn 0.000000 1.000000 0.000000
s off
g pPipe3
usemtl initialShadingGroup
f 2/2/1 1/1/2 21/22/3 22/23/4
f 3/3/5 2/2/6 22/23/7 23/24/8
f 4/4/9 3/3/10 23/24/11 24/25/12
f 5/5/13 4/4/14 24/25/15 25/26/16
f 6/6/17 5/5/18 25/26/19 26/27/20
f 7/7/21 6/6/22 26/27/23 27/28/24
f 8/8/25 7/7/26 27/28/27 28/29/28
f 9/9/29 8/8/30 28/29/31 29/30/32
f 10/10/33 9/9/34 29/30/35 30/31/36
f 11/11/37 10/10/38 30/31/39 31/32/40
f 12/12/41 11/11/42 31/32/43 32/33/44
f 13/13/45 12/12/46 32/33/47 33/34/48
f 14/14/49 13/13/50 33/34/51 34/35/52
f 15/15/53 14/14/54 34/35/55 35/36/56
f 16/16/57 15/15/58 35/36/59 36/37/60
f 17/17/61 16/16/62 36/37/63 37/38/64
f 18/18/65 17/17/66 37/38/67 38/39/68
f 19/19/69 18/18/70 38/39/71 39/40/72
f 20/20/73 19/19/74 39/40/75 40/41/76
f 1/21/77 20/20/78 40/41/79 21/42/80
f 22/44/81 21/43/82 1/64/83 2/65/84
f 23/45/85 22/44/86 2/65/87 3/66/88
f 24/46/89 23/45/90 3/66/91 4/67/92
f 25/47/93 24/46/94 4/67/95 5/68/96
f 26/48/97 25/47/98 5/68/99 6/69/100
f 27/49/101 26/48/102 6/69/103 7/70/104
f 28/50/105 27/49/106 7/70/107 8/71/108
f 29/51/109 28/50/110 8/71/111 9/72/112
f 30/52/113 29/51/114 9/72/115 10/73/116
f 31/53/117 30/52/118 10/73/119 11/74/120
f 32/54/121 31/53/122 11/74/123 12/75/124
f 33/55/125 32/54/126 12/75/127 13/76/128
f 34/56/129 33/55/130 13/76/131 14/77/132
f 35/57/133 34/56/134 14/77/135 15/78/136
f 36/58/137 35/57/138 15/78/139 16/79/140
f 37/59/141 36/58/142 16/79/143 17/80/144
f 38/60/145 37/59/146 17/80/147 18/81/148
f 39/61/149 38/60/150 18/81/151 19/82/152
f 40/62/153 39/61/154 19/82/155 20/83/156
f 21/63/157 40/62/158 20/83/159 1/84/160
f 42/85/161 41/86/162 21/87/163 22/88/164
f 43/89/165 42/85/166 22/88/167 23/90/168
f 44/91/169 43/89/170 23/90/171 24/92/172
f 45/93/173 44/91/174 24/92/175 25/94/176
f 46/95/177 45/93/178 25/94/179 26/96/180
f 47/97/181 46/95/182 26/96/183 27/98/184
f 48/99/185 47/97/186 27/98/187 28/100/188
f 49/101/189 48/99/190 28/100/191 29/102/192
f 50/103/193 49/101/194 29/102/195 30/104/196
f 51/105/197 50/103/198 30/104/199 31/106/200
f 52/107/201 51/105/202 31/106/203 32/108/204
f 53/109/205 52/107/206 32/108/207 33/110/208
f 54/111/209 53/109/210 33/110/211 34/112/212
f 55/113/213 54/111/214 34/112/215 35/114/216
f 56/115/217 55/113/218 35/114/219 36/116/220
f 57/117/221 56/115/222 36/116/223 37/118/224
f 58/119/225 57/117/226 37/118/227 38/120/228
f 59/121/229 58/119/230 38/120/231 39/122/232
f 60/123/233 59/121/234 39/122/235 40/124/236
f 41/125/237 60/123/238 40/124/239 21/126/240
f 22/127/241 21/128/242 41/129/243 42/130/244
f 23/131/245 22/127/246 42/130/247 43/132/248
f 24/133/249 23/131/250 43/132/251 44/134/252
f 25/135/253 24/133/254 44/134/255 45/136/256
f 26/137/257 25/135/258 45/136/259 46/138/260
f 27/139/261 26/137/262 46/138/263 47/140/264
f 28/141/265 27/139/266 47/140/267 48/142/268
f 29/143/269 28/141/270 48/142/271 49/144/272
f 30/145/273 29/143/274 49/144/275 50/146/276
f 31/147/277 30/145/278 50/146/279 51/148/280
f 32/149/281 31/147/282 51/148/283 52/150/284
f 33/151/285 32/149/286 52/150/287 53/152/288
f 34/153/289 33/151/290 53/152/291 54/154/292
f 35/155/293 34/153/294 54/154/295 55/156/296
f 36/157/297 35/155/298 55/156/299 56/158/300
f 37/159/301 36/157/302 56/158/303 57/160/304
f 38/161/305 37/159/306 57/160/307 58/162/308
f 39/163/309 38/161/310 58/162/311 59/164/312
f 40/165/313 39/163/314 59/164/315 60/166/316
f 21/167/317 40/165/318 60/166/319 41/168/320
f 41/169/321 42/170/322 2/171/323 1/172/324
f 42/173/325 43/174/326 3/175/327 2/176/328
f 43/177/329 44/178/330 4/179/331 3/180/332
f 44/181/333 45/182/334 5/183/335 4/184/336
f 45/185/337 46/186/338 6/187/339 5/188/340
f 46/189/341 47/190/342 7/191/343 6/192/344
f 47/193/345 48/194/346 8/195/347 7/196/348
f 48/197/349 49/198/350 9/199/351 8/200/352
f 49/201/353 50/202/354 10/203/355 9/204/356
f 50/205/357 51/206/358 11/207/359 10/208/360
f 51/209/361 52/210/362 12/211/363 11/212/364
f 52/213/365 53/214/366 13/215/367 12/216/368
f 53/217/369 54/218/370 14/219/371 13/220/372
f 54/221/373 55/222/374 15/223/375 14/224/376
f 55/225/377 56/226/378 16/227/379 15/228/380
f 56/229/381 57/230/382 17/231/383 16/232/384
f 57/233/385 58/234/386 18/235/387 17/236/388
f 58/237/389 59/238/390 19/239/391 18/240/392
f 59/241/393 60/242/394 20/243/395 19/244/396
f 60/245/397 41/246/398 1/247/399 20/248/400
